<svg width="110" height="42" fill="none" xmlns="http://www.w3.org/2000/svg"><path d="M8.84 20.543c0-6.006 3.88-10.446 9.659-10.446 4.57 0 8.279 2.786 8.279 5.571 0 1.175-.776 1.959-2.07 1.959-3.148 0-3.018-5.745-7.158-5.745-2.328 0-4.441 2.306-4.441 6.006 0 5.832 3.406 9.662 6.942 9.662 2.932 0 4.614-2.133 5.52-3.7.474-.609 1.509-.435 1.38.48-.303 3.699-2.976 7.18-8.194 7.18-5.519 0-9.917-5.31-9.917-10.967ZM28.373 30.728v-.13c0-.74 1.121-.958 1.121-2.22v-14.45c0-1.306-1.121-1.61-1.121-2.22v-.13c0-.305.216-.436.56-.61L32.6 9.14c.776-.392 1.207.044 1.207.522v18.672c0 1.218 1.25 1.48 1.25 2.22v.13c0 .305-.301.522-.69.522h-5.303c-.431 0-.69-.174-.69-.478ZM49.502 27.071c-.172 1.698-2.156 4.44-5.907 4.44-4.053 0-7.029-2.96-7.029-7.486-.086-3.874 2.932-7.138 6.813-7.225h.216c3.794 0 5.52 2.22 5.52 4.178a1.974 1.974 0 0 1-1.294 1.959l-6.468 2.96a4.137 4.137 0 0 0 3.837 2.567 3.855 3.855 0 0 0 3.32-1.697c.346-.436.992-.305.992.304Zm-8.926-5.048c0 .87.087 1.697.302 2.524l3.752-1.915c.517-.261.819-.827.776-1.393 0-1.044-.776-3.134-2.329-3.134-1.552 0-2.5 1.698-2.5 3.918ZM62.525 19.499c0 1.218-.475 2.306-1.855 2.306-2.285 0-1.25-2.524-2.846-2.524-1.12 0-1.552 1.61-1.552 3.22v5.876c0 1.219 1.466 1.48 1.466 2.22v.13c0 .349-.259.523-.647.523h-5.347c-.43 0-.69-.174-.69-.522v-.13c0-.74 1.122-.958 1.122-2.22v-6.834c0-1.306-1.337-1.393-1.337-2.132v-.131c0-.305.215-.522.604-.696l3.492-1.654c.647-.305.949.043.949.61v2.219c.647-1.872 2.027-2.916 3.967-2.916 1.38-.087 2.587 1 2.674 2.393v.262ZM79.6 30.64v.087c0 .349-.215.523-.603.523h-5.433a.48.48 0 0 1-.561-.479v-.087c0-.74 1.078-.914.604-1.61l-3.148-4.483-1.725 1.61v2.22c0 1.218 1.25 1.48 1.25 2.22v.13c0 .305-.258.522-.69.522h-5.346c-.388 0-.647-.217-.647-.522v-.13c0-.74 1.121-.958 1.121-2.22V13.928c0-1.306-1.294-1.61-1.294-2.22v-.13c0-.305.216-.436.604-.61l3.88-1.828c.69-.348 1.165.043 1.165.522v14.276l4.614-4.004c.862-.74-.69-1.48-.69-2.177v-.13c0-.305.216-.522.604-.522h4.14c.344 0 .603.174.603.478v.131c0 .74-1.423 1.219-2.5 2.176l-2.373 2.22 4.873 6.92c.474.653 1.552.914 1.552 1.61ZM79.6 28.072c0-1.131.776-1.61 1.725-1.61 2.544 0 1.552 3.874 4.484 3.874 1.208 0 2.113-.61 2.113-1.959 0-3.917-8.106-1.48-8.106-7.268 0-2.481 2.414-4.31 5.907-4.31 3.665 0 5.994 1.698 5.994 3.526-.043.87-.776 1.567-1.596 1.524-2.414 0-1.552-3.83-4.096-3.83a1.822 1.822 0 0 0-1.897 1.827v.131c0 4.004 7.934 1.654 7.934 7.268 0 2.394-2.329 4.222-6.21 4.222-3.794 0-6.252-1.567-6.252-3.395Z" fill="#133A23"/><path d="M108.534 17.583v.131c0 .74-.905 1.001-1.466 2.307l-5.519 12.1c-.949 2.088-3.364 7.268-6.382 7.268-2.63 0-4.27-1.61-4.27-3.134-.042-.914.648-1.698 1.553-1.741h.216c2.371 0 1.638 3.525 3.148 3.525 1.035 0 3.104-3.96 3.924-5.962L93.916 20.02c-.647-1.306-1.552-1.567-1.552-2.307v-.13c0-.305.259-.48.604-.48H98.4c.259-.043.517.175.56.48v.173c0 .74-1.078.827-.43 2.35l3.406 7.966 3.148-7.53c.776-1.828-1.294-2.046-1.294-2.742v-.13c0-.305.216-.523.604-.523h3.535c.345-.043.604.174.604.435Z" fill="#133A23"/><path d="M4.571 18.585c.043.043 0 .13-.043.174-.043.043-.13 0-.173-.044-.862-1.218-2.544-4.222-2.414-9.227 0-1.48.301-2.96.862-4.352.474-1.132 1.768-3.003 3.234-2.394 1.466.61-.56 2.873-.992 3.525-2.5 3.787-1.897 8.27-.474 12.318Z" fill="#FDBC4E"/><path d="M5.39 16.278c0 .043-.043.043-.086.043s-.043-.043-.043-.043c-.173-1.785-.26-5.702 1.38-9.14a10.807 10.807 0 0 1 3.492-4.265 3.286 3.286 0 0 1 1.897-.61c.82.087 1.466.827 1.078 1.654-.603 1.262-2.242 1.436-3.277 2.22-1.336 1-2.285 2.524-2.932 4.047a22.527 22.527 0 0 0-1.51 6.094Z" fill="#FDBC4E"/><path d="M7.029 15.364c0-.348.043-.697.13-1.001.344-1.219.818-2.394 1.465-3.482 1.725-2.916 4.226-5.484 7.546-6.267.992-.262 4.226-.262 3.191 1.653-.69 1.22-2.673.697-3.794.914-2.156.436-3.881 1.785-5.39 3.308-1.639 1.698-3.062 4.918-3.148 4.875Z" fill="#FDBC4E"/></svg>