<svg width="153" height="58" fill="none" xmlns="http://www.w3.org/2000/svg"><path d="M12.245 28.369c0-8.295 5.375-14.425 13.38-14.425 6.33 0 11.468 3.847 11.468 7.693 0 1.623-1.076 2.705-2.868 2.705-4.36 0-4.18-7.934-9.915-7.934-3.225 0-6.152 3.186-6.152 8.294 0 8.054 4.719 13.343 9.617 13.343 4.061 0 6.39-2.945 7.645-5.108.657-.842 2.09-.601 1.911.66-.418 5.11-4.12 9.918-11.348 9.918-7.646 0-13.738-7.333-13.738-15.146ZM39.303 42.433v-.18c0-1.022 1.553-1.322 1.553-3.065V19.233c0-1.803-1.553-2.224-1.553-3.065v-.18c0-.421.298-.601.776-.842l5.077-2.524c1.075-.541 1.673.06 1.673.721v25.784c0 1.683 1.732 2.044 1.732 3.066v.18c0 .42-.418.721-.956.721h-7.347c-.597 0-.955-.24-.955-.66ZM68.57 37.385c-.238 2.344-2.986 6.13-8.182 6.13-5.615 0-9.737-4.087-9.737-10.338-.119-5.349 4.062-9.857 9.438-9.977h.299c5.256 0 7.645 3.066 7.645 5.77a2.726 2.726 0 0 1-1.792 2.705l-8.96 4.087a5.731 5.731 0 0 0 5.317 3.546 5.345 5.345 0 0 0 4.599-2.344c.478-.601 1.374-.42 1.374.42Zm-12.364-6.972c0 1.202.12 2.344.418 3.486l5.197-2.645a1.998 1.998 0 0 0 1.075-1.923c0-1.443-1.075-4.328-3.225-4.328-2.15 0-3.465 2.344-3.465 5.41ZM86.61 26.926c0 1.683-.658 3.186-2.57 3.186-3.165 0-1.731-3.486-3.941-3.486-1.553 0-2.15 2.223-2.15 4.447v8.114c0 1.683 2.03 2.044 2.03 3.066v.18c0 .48-.358.721-.896.721h-7.406c-.598 0-.956-.24-.956-.721v-.18c0-1.022 1.553-1.323 1.553-3.066v-9.436c0-1.803-1.852-1.923-1.852-2.945v-.18c0-.421.299-.722.837-.962l4.838-2.284c.896-.42 1.314.06 1.314.841v3.066c.896-2.585 2.807-4.027 5.495-4.027 1.911-.12 3.584 1.382 3.703 3.306v.36ZM110.263 42.313v.12c0 .481-.299.721-.836.721h-7.526a.664.664 0 0 1-.777-.66v-.12c0-1.023 1.493-1.263.836-2.225l-4.36-6.19-2.39 2.223v3.066c0 1.683 1.733 2.043 1.733 3.065v.18c0 .421-.358.721-.956.721h-7.406c-.538 0-.896-.3-.896-.72v-.181c0-1.022 1.553-1.322 1.553-3.065V19.233c0-1.803-1.792-2.224-1.792-3.065v-.18c0-.421.299-.601.836-.842l5.376-2.524c.956-.481 1.612.06 1.612.721v19.714l6.392-5.53c1.194-1.021-.956-2.043-.956-3.005v-.18c0-.42.299-.721.836-.721h5.734c.478 0 .837.24.837.66v.181c0 1.022-1.971 1.683-3.465 3.005l-3.285 3.066 6.75 9.556c.657.902 2.15 1.262 2.15 2.224ZM110.263 38.767c0-1.563 1.075-2.224 2.389-2.224 3.524 0 2.15 5.35 6.212 5.35 1.672 0 2.927-.842 2.927-2.705 0-5.41-11.23-2.044-11.23-10.038 0-3.425 3.345-5.95 8.183-5.95 5.078 0 8.303 2.344 8.303 4.869-.06 1.202-1.075 2.163-2.21 2.103-3.345 0-2.15-5.289-5.674-5.289a2.521 2.521 0 0 0-2.629 2.524v.18c0 5.53 10.991 2.285 10.991 10.038 0 3.306-3.226 5.83-8.601 5.83-5.257 0-8.661-2.164-8.661-4.688Z" fill="#FBFAF7"/><path d="M150.342 24.282v.18c0 1.022-1.254 1.383-2.031 3.186l-7.645 16.709c-1.314 2.885-4.659 10.037-8.84 10.037-3.644 0-5.914-2.224-5.914-4.328-.059-1.262.896-2.344 2.151-2.404h.298c3.285 0 2.27 4.869 4.361 4.869 1.433 0 4.3-5.47 5.435-8.234l-8.064-16.65c-.895-1.802-2.15-2.163-2.15-3.185v-.18c0-.42.359-.661.836-.661h7.526c.359-.06.717.24.777.661v.24c0 1.022-1.493 1.143-.597 3.246l4.718 11 4.361-10.399c1.075-2.524-1.792-2.825-1.792-3.786v-.18c0-.421.298-.722.836-.722h4.898c.478-.06.836.24.836.601Z" fill="#FBFAF7"/><path d="M6.332 25.664c.06.06 0 .18-.06.24s-.18 0-.24-.06c-1.194-1.682-3.523-5.83-3.344-12.741 0-2.044.418-4.087 1.195-6.01.657-1.564 2.449-4.148 4.48-3.307 2.03.842-.777 3.967-1.374 4.869-3.465 5.229-2.629 11.42-.657 17.01Z" fill="#FDBC4E"/><path d="M7.467 22.479c0 .06-.06.06-.12.06s-.06-.06-.06-.06C7.048 20.015 6.93 14.605 9.2 9.857a14.933 14.933 0 0 1 4.838-5.89 4.562 4.562 0 0 1 2.628-.842c1.135.12 2.03 1.142 1.493 2.284-.836 1.743-3.106 1.984-4.54 3.066-1.85 1.382-3.165 3.486-4.06 5.59a31.029 31.029 0 0 0-2.091 8.414Z" fill="#FDBC4E"/><path d="M9.736 21.216c0-.48.06-.961.18-1.382.477-1.683 1.134-3.306 2.03-4.808C14.336 10.999 17.8 7.453 22.4 6.37c1.374-.36 5.854-.36 4.42 2.284-.955 1.683-3.703.962-5.256 1.262-2.986.601-5.376 2.464-7.466 4.568-2.27 2.344-4.241 6.792-4.36 6.732Z" fill="#FDBC4E"/></svg>