<svg width="25" height="25" fill="none" xmlns="http://www.w3.org/2000/svg"><path d="M21.338 0H3.662A3.666 3.666 0 0 0 0 3.662v17.676A3.666 3.666 0 0 0 3.662 25h17.676A3.666 3.666 0 0 0 25 21.338V3.662A3.666 3.666 0 0 0 21.338 0Zm-8.79 19.043a6.6 6.6 0 0 1-6.591-6.592 6.6 6.6 0 0 1 6.592-6.592 6.6 6.6 0 0 1 6.592 6.592 6.6 6.6 0 0 1-6.592 6.592Zm7.325-11.719a2.2 2.2 0 0 1-2.197-2.197 2.2 2.2 0 0 1 2.197-2.197 2.2 2.2 0 0 1 2.197 2.197 2.2 2.2 0 0 1-2.197 2.197Z" fill="#198C36"/><path d="M19.873 4.395a.733.733 0 1 0 .001 1.465.733.733 0 0 0-.001-1.465ZM12.549 7.324a5.133 5.133 0 0 0-5.127 5.127c0 2.827 2.3 5.127 5.127 5.127s5.127-2.3 5.127-5.127-2.3-5.127-5.127-5.127Z" fill="#198C36"/></svg>