<svg width="30" height="28" fill="none" xmlns="http://www.w3.org/2000/svg"><path d="M25.605 0H4.395C1.972 0 0 1.818 0 4.052v19.557c0 2.234 1.972 4.052 4.395 4.052h21.21c2.423 0 4.395-1.818 4.395-4.052V4.052C30 1.818 28.028 0 25.605 0Zm-15 21.934H7.09V10.59h3.515v11.345Zm0-12.966H7.09V5.727h3.515v3.241ZM22.91 21.934h-3.515v-6.483c0-.893-.79-1.62-1.758-1.62-.97 0-1.758.727-1.758 1.62v6.483h-3.516V10.59h3.516v.611c.92-.264 1.52-.611 2.637-.611 2.384.002 4.394 1.974 4.394 4.305v7.04Z" fill="#198C36"/></svg>