<svg width="30" height="28" fill="none" xmlns="http://www.w3.org/2000/svg"><path d="M30 5.254a13.68 13.68 0 0 1-3.544.895c1.275-.701 2.248-1.804 2.706-3.134a12.94 12.94 0 0 1-3.9 1.373c-1.129-1.108-2.738-1.795-4.493-1.795-3.405 0-6.146 2.549-6.146 5.673 0 .449.041.881.143 1.293-5.114-.23-9.638-2.49-12.677-5.932a5.374 5.374 0 0 0-.842 2.866c0 1.964 1.097 3.705 2.732 4.713a6.471 6.471 0 0 1-2.779-.698v.062c0 2.756 2.132 5.045 4.928 5.572a6.63 6.63 0 0 1-1.613.187c-.394 0-.791-.021-1.164-.097.796 2.246 3.058 3.897 5.747 3.95-2.093 1.51-4.75 2.419-7.626 2.419-.504 0-.988-.02-1.472-.078 2.724 1.62 5.953 2.545 9.435 2.545 11.318 0 17.505-8.644 17.505-16.137 0-.25-.01-.493-.023-.733A11.79 11.79 0 0 0 30 5.254Z" fill="#198C36"/></svg>